<!-- width="881" height="723" -->
<svg  viewBox="0 0 881 723" fill="none" xmlns="http://www.w3.org/2000/svg">
<g id="weather2 1" clip-path="url(#clip0)">
<g id="Sun">
<path id="Vector" d="M209.054 472.192C260.662 472.192 302.499 430.355 302.499 378.747C302.499 327.138 260.662 285.302 209.054 285.302C157.446 285.302 115.609 327.138 115.609 378.747C115.609 430.355 157.446 472.192 209.054 472.192Z" fill="#F2C94C"/>
<path id="Vector_2" d="M209.36 175H209.36C196.71 175 186.456 185.254 186.456 197.903V244.442C186.456 257.092 196.71 267.346 209.36 267.346H209.36C222.009 267.346 232.263 257.092 232.263 244.442V197.903C232.263 185.254 222.009 175 209.36 175Z" fill="#F2C94C"/>
<path id="Vector_3" d="M209.283 489.944H209.282C196.633 489.944 186.379 500.198 186.379 512.847V559.387C186.379 572.036 196.633 582.29 209.282 582.29H209.283C221.932 582.29 232.186 572.036 232.186 559.387V512.847C232.186 500.198 221.932 489.944 209.283 489.944Z" fill="#F2C94C"/>
<path id="Vector_4" d="M385.657 277.138L385.657 277.138C379.332 266.183 365.325 262.43 354.37 268.755L314.066 292.024C303.112 298.349 299.358 312.356 305.683 323.311L305.683 323.311C312.008 334.265 326.015 338.018 336.969 331.694L377.274 308.424C388.228 302.1 391.981 288.092 385.657 277.138Z" fill="#F2C94C"/>
<path id="Vector_5" d="M32.4516 480.356L32.4516 480.356C38.7761 491.31 52.7835 495.063 63.7379 488.739L104.042 465.469C114.997 459.145 118.75 445.137 112.425 434.183C106.101 423.228 92.0934 419.475 81.139 425.8L40.8347 449.069C29.8803 455.394 26.1271 469.401 32.4516 480.356Z" fill="#F2C94C"/>
<path id="Vector_6" d="M32.757 276.609L32.7569 276.609C26.4324 287.563 30.1857 301.571 41.1401 307.895L81.4443 331.165C92.3987 337.489 106.406 333.736 112.731 322.782L112.731 322.782C119.055 311.827 115.302 297.82 104.348 291.495L64.0433 268.226C53.0889 261.901 39.0815 265.654 32.757 276.609Z" fill="#F2C94C"/>
<path id="Vector_7" d="M324.831 433.779L324.831 433.779C318.506 444.733 322.26 458.741 333.214 465.065L373.518 488.335C384.473 494.659 398.48 490.906 404.805 479.952L404.805 479.952C411.129 468.997 407.376 454.99 396.421 448.665L356.117 425.396C345.163 419.071 331.155 422.824 324.831 433.779Z" fill="#F2C94C"/>
</g>
<path id="Vector_8" d="M769.508 575.25C769.508 547.727 761.781 520.757 747.207 497.409C732.634 474.062 711.798 455.274 687.073 443.184C662.347 431.095 634.724 426.19 607.348 429.027C579.971 431.864 553.941 442.329 532.22 459.231C513.731 437.838 489.875 421.76 463.107 412.652C436.34 403.544 407.628 401.735 379.929 407.411C352.229 413.088 326.544 426.045 305.517 444.948C284.49 463.851 268.881 488.017 260.298 514.958C245.937 502.192 228.69 493.105 210.04 488.479C191.39 483.852 171.896 483.826 153.233 488.4C134.571 492.975 117.299 502.015 102.903 514.741C88.5067 527.468 77.4175 543.501 70.5887 561.462C63.7599 579.423 61.396 598.773 63.7002 617.85C66.0045 636.926 72.908 655.157 83.8169 670.975C94.7258 686.793 109.314 699.725 126.326 708.658C143.338 717.591 162.266 722.258 181.481 722.257C183.325 722.257 185.157 722.209 186.98 722.126C188.863 722.207 190.754 722.257 192.657 722.257H637.976C670.018 722.255 700.911 710.325 724.639 688.791C748.366 667.257 763.227 637.662 766.327 605.77C768.445 595.735 769.511 585.507 769.508 575.25Z" fill="#678DBC"/>
<path id="Vector_9" d="M656.994 328.942C656.994 328.942 621.717 320.278 609.958 326.467C598.199 332.656 563.541 333.275 563.541 333.275C563.541 333.275 534.453 380.311 541.26 404.447C548.068 428.584 576.537 443.438 576.537 443.438L672.466 444.057L687.938 380.929C687.938 380.929 680.512 337.607 674.323 335.131C668.134 332.656 656.994 328.942 656.994 328.942Z" fill="#3F3D56"/>
<path id="Vector_10" d="M592.629 158.127C592.629 158.127 598.818 184.121 589.534 187.215C580.251 190.31 572.205 202.688 572.205 202.688L585.821 225.587L632.238 237.346L646.472 223.73L656.994 194.642L646.472 187.215C646.472 187.215 636.57 190.31 635.951 180.408C635.655 172.975 635.862 165.532 636.57 158.127L592.629 158.127Z" fill="#A0616A"/>
<path id="Vector_11" opacity="0.1" d="M592.629 158.127C592.629 158.127 598.818 184.121 589.534 187.215C580.251 190.31 572.205 202.688 572.205 202.688L585.821 225.587L632.238 237.346L646.472 223.73L656.994 194.642L646.472 187.215C646.472 187.215 636.57 190.31 635.951 180.408C635.655 172.975 635.862 165.532 636.57 158.127L592.629 158.127Z" fill="black"/>
<path id="Vector_12" d="M614.29 223.73L578.394 190.929C578.394 190.929 562.303 204.544 560.446 204.544C558.589 204.544 534.453 211.971 533.834 215.066C533.215 218.16 554.876 250.962 554.876 250.962C554.876 250.962 549.925 275.098 554.876 285.62C559.827 296.141 556.114 341.32 556.114 341.32C556.114 341.32 588.915 329.561 606.244 335.131C623.573 340.701 674.323 335.131 674.323 335.131C674.323 335.131 681.749 287.476 678.655 281.287C675.56 275.098 674.942 239.821 674.942 239.821L701.554 210.734C701.554 210.734 695.984 188.453 674.942 187.215C653.899 185.978 640.902 184.74 640.902 184.74L614.29 223.73Z" fill="#555586"/>
<path id="Vector_13" d="M572.205 375.978C572.205 375.978 502.889 344.415 475.039 329.561C447.188 314.708 404.485 326.467 418.1 359.887C431.716 393.307 507.84 426.109 507.84 426.109C507.84 426.109 532.596 444.676 547.449 444.057C562.303 443.438 583.655 443.747 583.655 443.747L572.205 375.978Z" fill="#3F3D56"/>
<path id="Vector_14" d="M679.274 380.311C679.274 380.311 803.672 381.548 795.626 427.965C787.58 474.382 747.165 458.143 738.5 460C738.5 455.668 721.359 453.34 721.359 453.34L647.091 430.441L679.274 380.311Z" fill="#3F3D56"/>
<g id="Leg">
<path id="Vector_15" d="M697.222 530.702L681.13 563.503C681.13 563.503 652.042 559.79 663.801 598.161C663.801 598.161 660.707 627.249 654.518 633.438C648.329 639.627 659.469 680.474 681.749 668.715C694.282 662.101 695.065 654.507 693.352 649.129C690.693 641.109 690.174 632.533 691.847 624.25C694.083 613.781 698.111 600.391 705.267 588.878C719.502 565.979 733.118 543.699 733.118 543.699L697.222 530.702Z" fill="#A0616A"/>
<path id="Vector_16" d="M740 419C740 419 801.546 385.083 793.5 431.5C785.454 477.917 739.925 551.744 731.261 553.601C722.596 555.458 691.033 541.842 691.033 537.51C691.033 533.177 721.359 453.34 721.359 453.34L727 447L740 419Z" fill="#3F3D56"/>
</g>
<path id="Vector_17" d="M702.792 241.678C702.792 241.678 710.218 312.851 706.505 323.991C702.792 335.131 689.795 365.457 673.085 380.311C656.375 395.164 632.857 470.05 619.86 434.154C606.863 398.258 640.902 378.454 640.902 378.454L675.023 330.448L675.344 252.322L702.792 241.678Z" fill="#A0616A"/>
<path id="Vector_18" d="M563.541 390.832C563.541 390.832 624.811 412.493 631.619 409.399C638.427 406.304 653.28 417.444 653.28 417.444C660.144 415.975 667.231 415.874 674.134 417.149C681.038 418.423 687.621 421.047 693.508 424.871C713.313 437.868 717.645 452.721 713.313 453.34C708.981 453.959 693.508 447.151 693.508 447.151C693.508 447.151 669.99 442.2 655.756 446.532C641.521 450.864 622.969 441.731 622.969 441.731L547.449 424.871L563.541 390.832Z" fill="#A0616A"/>
<path id="Vector_19" opacity="0.1" d="M563.541 390.832C563.541 390.832 624.811 412.493 631.619 409.399C638.427 406.304 653.28 417.444 653.28 417.444C660.144 415.975 667.231 415.874 674.134 417.149C681.038 418.423 687.621 421.047 693.508 424.871C713.313 437.868 717.645 452.721 713.313 453.34C708.981 453.959 693.508 447.151 693.508 447.151C693.508 447.151 669.99 442.2 655.756 446.532C641.521 450.864 622.969 441.731 622.969 441.731L547.449 424.871L563.541 390.832Z" fill="black"/>
<path id="Vector_20" d="M533.834 268.291C533.834 268.291 534.453 345.034 543.736 354.317C553.019 363.6 562.922 375.978 572.205 381.548C581.488 387.118 586.44 400.115 586.44 400.115C586.44 400.115 631 465.099 631.619 435.392C632.238 405.685 608.72 382.167 608.72 382.167L604.117 377.784C594.047 368.308 584.942 357.856 576.935 346.582C575.108 343.894 572.887 341.494 570.348 339.464C562.303 333.275 560.446 265.196 560.446 265.196L533.834 268.291Z" fill="#A0616A"/>
<path id="Vector_21" d="M688.557 203.307L701.554 210.734C701.554 210.734 706.505 243.535 708.981 247.867C711.456 252.199 678.655 263.34 673.704 260.245C668.753 257.151 666.277 226.825 666.277 226.825L688.557 203.307Z" fill="#555586"/>
<path id="Vector_22" d="M541.879 214.447H533.834C533.834 214.447 525.169 223.73 525.788 243.535C526.407 263.339 518.361 275.717 523.312 277.574C528.264 279.431 552.96 269.603 552.68 272.351C552.4 275.098 565.397 270.147 565.397 270.147L556.733 237.346L541.879 214.447Z" fill="#555586"/>
<path id="Vector_23" opacity="0.1" d="M479.681 341.32C479.681 341.32 517.434 357.411 527.955 359.887C538.476 362.363 572.481 391.331 572.481 391.331L549.269 426.578C549.269 426.578 525.48 423.633 512.483 421.158C499.486 418.682 422.124 367.314 435.121 358.649C448.118 349.985 479.681 341.32 479.681 341.32Z" fill="black"/>
<path id="Vector_24" d="M471.944 341.32C471.944 341.32 509.697 357.411 520.218 359.887C530.739 362.363 572.205 390.832 572.205 390.832L551.782 430.441C551.782 430.441 517.742 423.633 504.746 421.158C491.749 418.682 414.387 367.314 427.384 358.649C440.381 349.985 471.944 341.32 471.944 341.32Z" fill="#3F3D56"/>
<g id="Head">
<path id="Vector_25" d="M625.43 165.554C654.483 165.554 678.036 142.002 678.036 112.948C678.036 83.8947 654.483 60.3422 625.43 60.3422C596.376 60.3422 572.824 83.8947 572.824 112.948C572.824 142.002 596.376 165.554 625.43 165.554Z" fill="#2F2E41"/>
<path id="Vector_26" d="M616.456 175.147C637.306 175.147 654.209 158.245 654.209 137.395C654.209 116.544 637.306 99.642 616.456 99.642C595.606 99.642 578.703 116.544 578.703 137.395C578.703 158.245 595.606 175.147 616.456 175.147Z" fill="#A0616A"/>
<path id="Vector_27" d="M635.642 129.968C664.695 129.968 688.248 106.415 688.248 77.3618C688.248 48.3083 664.695 24.7558 635.642 24.7558C606.588 24.7558 583.036 48.3083 583.036 77.3618C583.036 106.415 606.588 129.968 635.642 129.968Z" fill="#2F2E41"/>
<path id="Vector_28" d="M650.495 49.5115C664.167 49.5115 675.251 38.428 675.251 24.7558C675.251 11.0835 664.167 0 650.495 0C636.823 0 625.739 11.0835 625.739 24.7558C625.739 38.428 636.823 49.5115 650.495 49.5115Z" fill="#2F2E41"/>
</g>
</g>
<defs>
<clipPath id="clip0">
<rect width="881" height="722.628" fill="white"/>
</clipPath>
</defs>
</svg>
